<svg width="90" height="24" viewBox="0 0 90 24" fill="none" xmlns="http://www.w3.org/2000/svg">
<path d="M7.5 8.25H16.5M7.5 11.25H12M2.25 12.76C2.25 14.36 3.373 15.754 4.957 15.987C6.086 16.153 7.227 16.28 8.38 16.366C8.73 16.392 9.05 16.576 9.245 16.867L12 21L14.755 16.867C14.8516 16.7233 14.9798 16.6034 15.1297 16.5166C15.2795 16.4298 15.4472 16.3783 15.62 16.366C16.7652 16.2805 17.9069 16.1541 19.043 15.987C20.627 15.754 21.75 14.361 21.75 12.759V6.741C21.75 5.139 20.627 3.746 19.043 3.513C16.711 3.17071 14.357 2.99926 12 3C9.608 3 7.256 3.175 4.957 3.513C3.373 3.746 2.25 5.14 2.25 6.741V12.759V12.76Z" stroke="#F97316" stroke-width="1.5" stroke-linecap="round" stroke-linejoin="round"/>
<path d="M37.5335 16.3C37.0855 16.548 36.3855 16.672 35.4335 16.672C34.0655 16.672 32.9735 16.256 32.1575 15.424C31.3495 14.576 30.9455 13.46 30.9455 12.076C30.9455 10.708 31.3575 9.6 32.1815 8.752C33.0055 7.904 34.0895 7.48 35.4335 7.48C36.4095 7.48 37.1095 7.588 37.5335 7.804L37.4375 9.028C36.8935 8.812 36.2255 8.704 35.4335 8.704C34.4655 8.704 33.6935 9.016 33.1175 9.64C32.5415 10.264 32.2535 11.076 32.2535 12.076C32.2535 13.116 32.5335 13.932 33.0935 14.524C33.6615 15.14 34.4415 15.448 35.4335 15.448C36.2735 15.448 36.9415 15.316 37.4375 15.052L37.5335 16.3ZM45.1122 16.516H43.8282V12.676C43.8282 12.092 43.7602 11.672 43.6242 11.416C43.4402 11.112 43.1202 10.96 42.6642 10.96C42.1602 10.96 41.7722 11.168 41.5002 11.584C41.2682 11.96 41.1522 12.432 41.1522 13V16.516H39.8682V6.964H41.1522V10.576C41.3122 10.312 41.5442 10.112 41.8482 9.976C42.1442 9.832 42.4602 9.76 42.7962 9.76C43.6362 9.76 44.2402 10.016 44.6082 10.528C44.9442 10.984 45.1122 11.684 45.1122 12.628V16.516ZM50.5896 16.576V15.94C50.1976 16.452 49.6336 16.708 48.8976 16.708C48.0976 16.708 47.5056 16.484 47.1216 16.036C46.8496 15.708 46.7136 15.308 46.7136 14.836C46.7136 13.204 47.9136 12.388 50.3136 12.388H50.4936V12.172C50.4936 11.388 50.1296 10.996 49.4016 10.996C48.7456 10.996 48.0976 11.168 47.4576 11.512V10.336C48.0656 10.024 48.7376 9.868 49.4736 9.868C50.2416 9.868 50.8016 10.048 51.1536 10.408C51.5296 10.8 51.7176 11.408 51.7176 12.232V15.028C51.7176 15.764 51.7416 16.28 51.7896 16.576H50.5896ZM50.4936 13.504H50.2416C49.6176 13.504 49.1376 13.56 48.8016 13.672C48.2656 13.848 47.9976 14.196 47.9976 14.716C47.9976 15.292 48.3296 15.58 48.9936 15.58C49.9936 15.58 50.4936 14.972 50.4936 13.756V13.504ZM56.8046 16.516C56.5006 16.644 56.1566 16.708 55.7726 16.708C55.0126 16.708 54.5206 16.504 54.2966 16.096C54.1286 15.824 54.0446 15.3 54.0446 14.524V11.128H53.0126V9.94H54.0446V8.512L55.3406 8.092V9.94H56.6126V11.128H55.3406V14.86C55.3406 15.324 55.5526 15.556 55.9766 15.556C56.2566 15.556 56.5006 15.504 56.7086 15.4L56.8046 16.516ZM59.448 15.28H59.88C62.312 15.28 63.528 14.192 63.528 12.016C63.528 9.912 62.488 8.86 60.408 8.86H59.448V15.28ZM58.14 7.636H60.408C61.912 7.636 63.044 8.052 63.804 8.884C64.484 9.636 64.824 10.692 64.824 12.052C64.824 13.588 64.336 14.736 63.36 15.496C62.504 16.176 61.316 16.516 59.796 16.516H58.14V7.636ZM69.4028 10.996C68.8588 10.996 68.4268 11.212 68.1068 11.644C67.8028 12.068 67.6508 12.616 67.6508 13.288C67.6508 13.96 67.8028 14.508 68.1068 14.932C68.4268 15.364 68.8588 15.58 69.4028 15.58C69.9468 15.58 70.3748 15.364 70.6868 14.932C70.9988 14.516 71.1548 13.968 71.1548 13.288C71.1548 12.616 70.9988 12.068 70.6868 11.644C70.3748 11.212 69.9468 10.996 69.4028 10.996ZM69.4028 9.868C70.3948 9.868 71.1668 10.224 71.7188 10.936C72.2148 11.568 72.4628 12.352 72.4628 13.288C72.4628 14.224 72.2148 15.008 71.7188 15.64C71.1668 16.352 70.3948 16.708 69.4028 16.708C68.4028 16.708 67.6268 16.352 67.0748 15.64C66.5868 15.024 66.3428 14.24 66.3428 13.288C66.3428 12.336 66.5868 11.552 67.0748 10.936C67.6268 10.224 68.4028 9.868 69.4028 9.868ZM78.4561 16.456C78.0081 16.6 77.4361 16.672 76.7401 16.672C75.7561 16.672 74.9801 16.328 74.4121 15.64C73.9001 15.024 73.6441 14.236 73.6441 13.276C73.6441 12.292 73.9401 11.48 74.5321 10.84C75.1321 10.208 75.8881 9.892 76.8001 9.892C77.4081 9.892 77.9601 9.976 78.4561 10.144L78.3601 11.308C77.8881 11.116 77.3961 11.02 76.8841 11.02C76.2601 11.02 75.7721 11.228 75.4201 11.644C75.0761 12.052 74.9041 12.596 74.9041 13.276C74.9041 13.916 75.0801 14.456 75.4321 14.896C75.7761 15.328 76.2321 15.544 76.8001 15.544C77.3201 15.544 77.8401 15.448 78.3601 15.256L78.4561 16.456ZM83.1046 11.32C82.5766 11.096 82.0766 10.984 81.6046 10.984C80.9406 10.984 80.6086 11.244 80.6086 11.764C80.6086 11.996 80.8606 12.236 81.3646 12.484C82.0926 12.844 82.5606 13.108 82.7686 13.276C83.2646 13.684 83.5126 14.188 83.5126 14.788C83.5126 15.46 83.2446 15.968 82.7086 16.312C82.2846 16.576 81.7766 16.708 81.1846 16.708C80.4646 16.708 79.8406 16.6 79.3126 16.384L79.4326 15.148C80.0166 15.436 80.5886 15.58 81.1486 15.58C81.4686 15.58 81.7326 15.496 81.9406 15.328C82.1326 15.176 82.2286 14.976 82.2286 14.728C82.2286 14.408 81.9846 14.112 81.4966 13.84C81.0406 13.592 80.7006 13.404 80.4766 13.276C80.2526 13.148 80.1366 13.08 80.1286 13.072C79.6406 12.704 79.3966 12.252 79.3966 11.716C79.3966 11.06 79.6406 10.572 80.1286 10.252C80.5206 9.996 80.9966 9.868 81.5566 9.868C82.1806 9.868 82.7406 9.976 83.2366 10.192L83.1046 11.32Z" fill="black"/>
</svg>
